<svg width="50" height="50" viewBox="0 0 50 50" fill="none" xmlns="http://www.w3.org/2000/svg">
<g clip-path="url(#clip0_1_3)">
<path d="M24.002 8.37501C29.411 8.3913 32.7914 10.6532 34.8115 12.9297C35.8167 14.0624 36.4809 15.194 36.8945 16.043C37.1014 16.4677 37.247 16.8235 37.3408 17.0752C37.3876 17.2009 37.4215 17.3013 37.4443 17.3711C37.4557 17.4059 37.4648 17.4338 37.4707 17.4531C37.4735 17.4624 37.4759 17.4701 37.4775 17.4756C37.4783 17.4782 37.479 17.4808 37.4795 17.4824L37.4805 17.4854C37.4787 17.4862 37.4495 17.4951 37 17.624L37.4805 17.4863L37.5 17.5537V43.124H10.5V17.5547L10.5195 17.4873V17.4854L10.5205 17.4834C10.521 17.4817 10.5217 17.4791 10.5225 17.4766C10.5241 17.471 10.5264 17.4627 10.5293 17.4531C10.5352 17.4337 10.5434 17.4059 10.5547 17.3711C10.5775 17.3008 10.6123 17.1998 10.6592 17.0733C10.7529 16.82 10.8977 16.4622 11.1045 16.0352C11.518 15.1813 12.1822 14.0432 13.1875 12.9063C15.2081 10.6211 18.5908 8.35885 24.002 8.37501Z" fill="#9999FF"/>
<path d="M30 18.3746C30.8284 18.3746 31.5 19.0462 31.5 19.8746V32.8287H31.4951C31.4965 32.8439 31.5 32.859 31.5 32.8746C31.5 33.1163 31.3286 33.3183 31.1006 33.3648L30.8994 33.3844C30.6714 33.4309 30.5 33.6329 30.5 33.8746V33.9088L30.5098 34.0025C30.5531 34.2148 30.7408 34.3746 30.9658 34.3746H31C31.2761 34.3746 31.5 34.5984 31.5 34.8746C31.5 35.1507 31.2761 35.3746 31 35.3746H18C17.1716 35.3746 16.5 34.703 16.5 33.8746V19.8746C16.5 19.0462 17.1716 18.3746 18 18.3746H30ZM18 33.3746C17.7239 33.3746 17.5 33.5984 17.5 33.8746C17.5 34.1507 17.7239 34.3746 18 34.3746H29.5771C29.5434 34.2737 29.5189 34.1684 29.5078 34.0592L29.5 33.9088V33.8746C29.5 33.6991 29.5315 33.5311 29.5869 33.3746H18ZM18 19.3746C17.7239 19.3746 17.5 19.5984 17.5 19.8746V32.4615C17.6565 32.4061 17.8245 32.3746 18 32.3746H30.5V19.8746C30.5 19.5984 30.2761 19.3746 30 19.3746H18Z" fill="white"/>
</g>
<defs>
<clipPath id="clip0_1_3">
<rect width="50" height="50" fill="white"/>
</clipPath>
</defs>
</svg>
